# xmcd
#
# Track frame offsets: 
#        150
#        16331
#        30426
#        47357
#        63942
#        79431
#        99105
#        115628
#        133025
#        152206
#        172208
#        187333
#        205923
#        227357
#        254700
#
# Disc length: 4440 seconds
#
# Revision: 4
# Processed by: cddbd v1.5.1PL0 Copyright (c) Steve Scherf et al.
# Submitted via: ExactAudioCopy v0.95a5
#
DISCID=c511560f
DTITLE=Jamelia - Thank You
DYEAR=2004
DGENRE=Hip Hop
TTITLE0=Superstar
TTITLE1=Thank You
TTITLE2=DJ
TTITLE3=See It In A Boy´s Eyes
TTITLE4=Taxi
TTITLE5=Dirty Dirty
TTITLE6=Club Hoppin'
TTITLE7=Cutie
TTITLE8=Bounce
TTITLE9=Bout
TTITLE10=Off Da Endz
TTITLE11=B.I.T.C.H.
TTITLE12=Life
TTITLE13=Antidote
TTITLE14=Pista de Datos
EXTD=YEAR: 2004
EXTT0=
EXTT1=
EXTT2=
EXTT3=
EXTT4=
EXTT5=
EXTT6=
EXTT7=
EXTT8=
EXTT9=
EXTT10=
EXTT11=
EXTT12=
EXTT13=
EXTT14=
PLAYORDER=
